<svg
                                  version="1.1"
                                  class="max-width-3 stroke-12 svg-icon"
                                  xmlns="http://www.w3.org/2000/svg"
                                  xmlns:xlink="http://www.w3.org/1999/xlink"
                                  x="0px"
                                  y="0px"
                                  viewBox="0 0 353.3 240.7"
                                  enable-background="new 0 0 353.3 240.7;"
                                  xml:space="preserve"
                                >
                                  <g>
                                    <path
                                      d="M23.5,233.2c10.7-12.5,18.9-26.3,24.7-41.4s9.6-29.4,11.4-42.7c-14.2-4.5-26.5-13.1-36.7-26
                                                         c-10.3-13-15.4-27.4-15.4-43.5c0-20.5,7.1-37.6,21.4-51.4S60.5,7.5,81,7.5s38.3,7.6,53.4,22.7c15.1,15.1,22.7,32.9,22.7,53.4
                                                         c0,29.4-3.8,57.2-11.4,83.5s-18.5,48.3-32.7,66.1L23.5,233.2L23.5,233.2z M212.2,233.2c10.7-12.5,18.9-26.3,24.7-41.4
                                                         s9.6-29.4,11.4-42.7c-14.2-4.5-26.5-13.1-36.7-26s-15.4-27.4-15.4-43.4c0-20.5,7.1-37.6,21.4-51.4c14.2-13.8,31.6-20.7,52.1-20.7
                                                         s38.3,7.6,53.4,22.7s22.7,32.9,22.7,53.4c0,29.4-3.8,57.2-11.4,83.5s-18.5,48.3-32.7,66.1L212.2,233.2L212.2,233.2z"
                                    ></path>
                                  </g>
                                </svg>